<?xml version="1.0" encoding="UTF-8" standalone="no"?>
<svg
   xmlns:dc="http://purl.org/dc/elements/1.1/"
   xmlns:cc="http://creativecommons.org/ns#"
   xmlns:rdf="http://www.w3.org/1999/02/22-rdf-syntax-ns#"
   xmlns:svg="http://www.w3.org/2000/svg"
   xmlns="http://www.w3.org/2000/svg"
   xmlns:sodipodi="http://sodipodi.sourceforge.net/DTD/sodipodi-0.dtd"
   xmlns:inkscape="http://www.inkscape.org/namespaces/inkscape"
   width="212.181"
   height="44.821999"
   viewBox="0 0 212.181 44.821999"
   version="1.1"
   id="svg3688"
   sodipodi:docname="code_academy.svg"
   inkscape:version="0.92.0 r15299">
  <metadata
     id="metadata3694">
    <rdf:RDF>
      <cc:Work
         rdf:about="">
        <dc:format>image/svg+xml</dc:format>
        <dc:type
           rdf:resource="http://purl.org/dc/dcmitype/StillImage" />
      </cc:Work>
    </rdf:RDF>
  </metadata>
  <defs
     id="defs3692" />
  <sodipodi:namedview
     pagecolor="#ffffff"
     bordercolor="#666666"
     borderopacity="1"
     objecttolerance="10"
     gridtolerance="10"
     guidetolerance="10"
     inkscape:pageopacity="0"
     inkscape:pageshadow="2"
     inkscape:window-width="1920"
     inkscape:window-height="1017"
     id="namedview3690"
     showgrid="false"
     inkscape:zoom="6.1929825"
     inkscape:cx="142.5"
     inkscape:cy="30"
     inkscape:window-x="1272"
     inkscape:window-y="-8"
     inkscape:window-maximized="1"
     inkscape:current-layer="svg3688" />
  <g
     id="g3686"
     transform="matrix(0.7470255,0,0,0.7470255,0,4.6859619e-4)"
     style="fill:#1f4056;fill-rule:evenodd">
    <path
       d="M 11.778,41.177 C 11.24,39.624 11,37.652 11,35.024 c 0,-2.63 0.24,-4.6 0.778,-6.154 C 13.213,24.45 16.98,22 21.945,22 c 3.708,0 6.58,1.494 8.553,3.883 0.18,0.18 0.18,0.538 -0.06,0.717 l -3.23,2.868 c -0.24,0.18 -0.538,0.18 -0.717,-0.12 -1.255,-1.374 -2.51,-2.15 -4.544,-2.15 -2.212,0 -3.887,1.075 -4.605,3.226 -0.36,1.254 -0.48,2.688 -0.48,4.6 0,1.91 0.12,3.405 0.54,4.66 0.72,2.09 2.393,3.226 4.606,3.226 2.033,0 3.35,-0.777 4.546,-2.15 0.18,-0.24 0.48,-0.24 0.718,-0.06 l 3.23,2.867 c 0.24,0.18 0.18,0.478 0.06,0.717 -1.974,2.33 -4.845,3.823 -8.553,3.823 -4.964,-0.06 -8.792,-2.45 -10.227,-6.93 m 110.998,0 c -0.538,-1.553 -0.778,-3.525 -0.778,-6.153 0,-2.63 0.24,-4.6 0.778,-6.154 1.435,-4.42 5.203,-6.87 10.167,-6.87 3.708,0 6.64,1.494 8.553,3.883 0.18,0.18 0.18,0.538 -0.06,0.717 l -3.23,2.868 c -0.24,0.18 -0.538,0.18 -0.717,-0.12 -1.255,-1.374 -2.51,-2.15 -4.544,-2.15 -2.212,0 -3.887,1.075 -4.605,3.226 -0.417,1.254 -0.54,2.688 -0.54,4.6 0,1.91 0.123,3.405 0.54,4.66 0.72,2.09 2.394,3.226 4.606,3.226 2.033,0 3.35,-0.777 4.546,-2.15 0.18,-0.24 0.48,-0.24 0.718,-0.06 l 3.23,2.867 c 0.24,0.18 0.18,0.478 0.06,0.717 -1.974,2.33 -4.845,3.823 -8.553,3.823 -4.964,-0.06 -8.732,-2.45 -10.167,-6.93 m 130.14,6.273 c -0.298,0 -0.537,-0.18 -0.537,-0.538 V 32.574 c 0,-3.226 -1.615,-5.436 -4.665,-5.436 -2.99,0 -4.725,2.21 -4.725,5.436 v 14.338 c 0,0.3 -0.18,0.538 -0.538,0.538 h -4.725 c -0.3,0 -0.538,-0.18 -0.538,-0.538 V 32.574 c 0,-3.226 -1.615,-5.436 -4.666,-5.436 -2.99,0 -4.725,2.21 -4.725,5.436 v 14.338 c 0,0.3 -0.177,0.538 -0.536,0.538 h -4.725 c -0.3,0 -0.54,-0.18 -0.54,-0.538 V 23.075 c 0,-0.298 0.18,-0.537 0.54,-0.537 h 4.724 c 0.3,0 0.538,0.18 0.538,0.537 v 1.793 h 0.06 c 1.078,-1.553 3.23,-2.868 6.52,-2.868 2.93,0 5.264,1.195 6.76,3.286 h 0.06 c 1.912,-2.09 4.365,-3.286 7.893,-3.286 5.742,0 8.972,3.943 8.972,9.26 v 15.712 c 0,0.3 -0.18,0.538 -0.54,0.538 l -4.604,-0.06 z m 11.82,8.782 c -0.3,0 -0.54,-0.18 -0.54,-0.538 v -4.122 c 0,-0.3 0.18,-0.537 0.54,-0.537 h 0.897 c 1.974,0 2.93,-0.897 3.708,-2.928 l 0.718,-2.09 -9.032,-23.48 C 260.918,22.239 261.155,22 261.455,22 h 5.085 c 0.3,0 0.538,0.18 0.598,0.538 l 5.562,16.25 h 0.12 l 5.323,-16.25 c 0.12,-0.3 0.3,-0.538 0.597,-0.538 h 4.845 c 0.298,0 0.538,0.18 0.418,0.538 l -9.33,25.987 c -2.153,5.914 -4.187,7.767 -8.313,7.767 l -1.615,-0.06 z M 49.67,39.622 c 0.42,-1.313 0.538,-2.51 0.538,-4.6 0,-2.09 -0.12,-3.225 -0.538,-4.6 -0.718,-2.09 -2.333,-3.225 -4.605,-3.225 -2.273,0 -3.947,1.195 -4.665,3.226 -0.42,1.314 -0.54,2.45 -0.54,4.6 0,2.09 0.12,3.286 0.54,4.6 0.718,2.09 2.333,3.227 4.665,3.227 2.272,0.06 3.887,-1.136 4.605,-3.227 M 34.838,41.176 C 34.3,39.444 34,37.772 34,35.023 34,32.275 34.24,30.663 34.838,28.87 36.213,24.51 39.98,22 45.005,22 c 4.964,0 8.732,2.51 10.107,6.87 0.54,1.732 0.838,3.405 0.838,6.153 0,2.75 -0.24,4.36 -0.838,6.153 -1.375,4.36 -5.143,6.87 -10.107,6.87 -4.964,0 -8.732,-2.51 -10.167,-6.87 M 155.288,22 c -4.068,0 -6.76,0.956 -8.733,2.45 -0.18,0.18 -0.24,0.418 -0.12,0.656 l 1.914,3.406 c 0.177,0.238 0.477,0.298 0.715,0.12 1.197,-0.956 2.87,-1.733 5.622,-1.733 4.008,0 5.384,1.192 5.503,3.88 v 8.305 c 0,2.867 -1.973,4.24 -5.502,4.24 -2.75,0 -4.245,-1.014 -4.245,-3.105 0,-2.33 1.614,-3.345 5.322,-3.345 h 1.137 c 0.298,0 0.538,-0.18 0.538,-0.537 v -3.286 c 0,-0.298 -0.18,-0.538 -0.538,-0.538 h -2.034 c -6.1,0 -9.868,2.51 -9.868,7.886 0,5.197 3.768,7.588 8.313,7.588 3.47,0 5.8,-1.195 6.938,-2.868 h 0.06 v 1.792 c 0,0.3 0.18,0.538 0.54,0.538 h 4.306 c 0.3,0 0.54,-0.18 0.54,-0.538 V 30.721 C 165.572,24.63 162.82,22 155.286,22 M 94.732,32.514 c -0.12,0 -0.24,0.06 -0.24,0.24 v 3.883 c 0,0.12 0.06,0.24 0.24,0.24 h 12.68 c 0.358,0 0.538,-0.18 0.538,-0.538 0,-4.004 -0.24,-5.736 -0.838,-7.47 -1.376,-4.24 -5.084,-6.87 -10.168,-6.87 -4.904,0 -8.73,2.51 -10.107,6.87 C 86.3,30.485 86,32.455 86,35.025 c 0,2.568 0.36,4.48 0.897,6.093 1.376,4.36 5.084,6.93 10.287,6.93 4.545,0 8.014,-1.733 10.167,-4.24 0.18,-0.24 0.18,-0.54 -0.06,-0.718 l -2.99,-2.69 c -0.237,-0.18 -0.536,-0.18 -0.775,0.12 -1.256,1.373 -2.99,2.39 -5.802,2.39 -2.75,0 -4.725,-1.316 -5.502,-3.765 -0.12,-0.36 -0.24,-0.717 -0.3,-1.076 -0.18,-1.076 -0.297,-2.09 -0.297,-3.585 0.06,-1.434 0.12,-2.33 0.3,-3.465 v -0.12 c 0.06,-0.297 0.118,-0.536 0.178,-0.775 0.66,-2.032 2.513,-3.226 4.845,-3.226 2.333,0 4.128,1.192 4.785,3.224 0.18,0.597 0.298,1.254 0.298,2.09 0,0.18 -0.12,0.3 -0.3,0.3 H 94.736 Z M 81.232,12 h -4.725 c -0.3,0 -0.538,0.18 -0.538,0.538 v 23.478 c -0.06,1.434 -0.24,2.39 -0.48,3.226 -0.66,2.09 -2.273,3.167 -4.606,3.167 -2.273,0 -3.888,-1.138 -4.545,-3.17 -0.36,-1.134 -0.54,-2.39 -0.54,-4.66 0,-2.27 0.18,-3.524 0.54,-4.66 0.656,-2.03 2.21,-3.165 4.425,-3.225 H 72.8 c 0.118,0 0.178,-0.12 0.178,-0.238 v -4.72 c 0,-0.12 -0.06,-0.18 -0.18,-0.24 H 69.27 c -4.126,0.06 -7.117,2.032 -8.373,5.975 -0.598,1.912 -0.897,3.644 -0.897,6.99 0,3.345 0.24,5.078 0.897,6.99 1.256,4.002 4.366,5.974 8.553,5.974 3.35,0 5.382,-1.255 6.52,-2.928 h 0.06 v 1.85 c 0,0.3 0.178,0.54 0.537,0.54 h 4.725 c 0.3,0 0.538,-0.18 0.538,-0.54 V 12.3 c -0.06,-0.12 -0.3,-0.298 -0.598,-0.298 m 123.5,20.512 c -0.12,0 -0.24,0.06 -0.24,0.24 v 3.883 c 0,0.12 0.06,0.24 0.24,0.24 h 12.68 c 0.358,0 0.538,-0.18 0.538,-0.538 0,-4.004 -0.24,-5.736 -0.838,-7.47 -1.376,-4.24 -5.084,-6.87 -10.168,-6.87 -4.904,0 -8.73,2.51 -10.107,6.87 -0.538,1.615 -0.837,3.585 -0.837,6.155 0,2.568 0.36,4.48 0.897,6.093 1.376,4.36 5.084,6.93 10.287,6.93 4.545,0 8.014,-1.733 10.167,-4.24 0.18,-0.24 0.18,-0.54 -0.06,-0.718 l -2.987,-2.69 c -0.24,-0.18 -0.54,-0.18 -0.778,0.12 -1.256,1.374 -2.99,2.39 -5.802,2.39 -2.75,0 -4.725,-1.315 -5.502,-3.764 -0.12,-0.36 -0.24,-0.717 -0.3,-1.076 -0.18,-1.075 -0.297,-2.09 -0.297,-3.584 0.06,-1.434 0.12,-2.33 0.3,-3.465 V 30.9 c 0.06,-0.296 0.118,-0.535 0.178,-0.774 0.66,-2.032 2.513,-3.226 4.845,-3.226 2.333,0 4.128,1.193 4.785,3.225 0.18,0.597 0.298,1.254 0.298,2.09 0,0.18 -0.12,0.3 -0.3,0.3 h -6.995 z M 191.232,12 h -4.725 c -0.3,0 -0.538,0.18 -0.538,0.538 v 23.538 c -0.06,1.433 -0.24,2.39 -0.48,3.226 -0.66,2.09 -2.273,3.226 -4.606,3.226 -2.333,0 -3.888,-1.136 -4.545,-3.226 -0.36,-1.135 -0.54,-2.39 -0.54,-4.66 0,-2.27 0.18,-3.525 0.54,-4.66 0.656,-2.03 2.21,-3.167 4.425,-3.226 h 2.033 c 0.298,0 0.537,-0.18 0.537,-0.538 v -4.122 c 0,-0.3 -0.18,-0.538 -0.538,-0.538 h -3.47 c -4.127,0.06 -7.177,2.032 -8.433,5.974 -0.598,1.912 -0.897,3.645 -0.897,7.05 0,3.346 0.24,5.138 0.897,7.05 1.256,4.002 4.366,5.974 8.553,5.974 3.35,0 5.382,-1.255 6.58,-2.927 h 0.058 v 1.85 c 0,0.3 0.18,0.537 0.538,0.537 h 4.725 c 0.3,0 0.54,-0.18 0.54,-0.538 V 12.477 c -0.12,-0.3 -0.36,-0.478 -0.658,-0.478 M 123,55 v 4 c 0,0.752 0.175,1 1,1 h 16 c 0.767,0 1,-0.186 1,-1 v -4 c 0,-0.752 -0.175,-1 -1,-1 h -17 c 0.175,0 0,0.186 0,1"
       id="path3682"
       inkscape:connector-curvature="0" />
    <path
       d="M 6.99,54 H 6 c 0.12,-0.06 0,-0.238 0,0 V 6 c 0,0.238 0.12,0.06 0,0 h 107 c -0.12,0.06 0,0.238 0,0 v 47 c 0,0.703 -0.12,0.88 0,1 z M 119,0 c -0.12,0.18 -0.12,0.12 0,0 -0.12,0.12 -0.12,0.12 0,0 -0.24,0.06 -0.36,0 -1,0 H 0 c 0.12,0.12 0,0.3 0,1 v 59 c 0,-0.3 0.06,-0.18 0,0 h 118 c 0.64,0 0.76,-0.06 1,0 -0.06,-0.24 0,-0.36 0,-1 z"
       id="path3684"
       inkscape:connector-curvature="0" />
  </g>
</svg>
